<svg xmlns="http://www.w3.org/2000/svg" width="1500" height="500" viewBox="0 0 1500 500" role="img" aria-labelledby="title desc">
  <title id="title">JPGFLY</title>
  <desc id="desc">JPGFLY autonomous fly brain art project banner</desc>
  <rect width="1500" height="500" fill="#000"/>
  <g fill="none" stroke="#fff" stroke-width="8" stroke-linecap="round" stroke-linejoin="round" transform="translate(185 250)">
    <ellipse cx="0" cy="0" rx="38" ry="92"/>
    <ellipse cx="-65" cy="-55" rx="76" ry="42" transform="rotate(-28 -65 -55)"/>
    <ellipse cx="65" cy="-55" rx="76" ry="42" transform="rotate(28 65 -55)"/>
    <circle cx="0" cy="-108" r="27"/>
    <path d="M-20 -120 L-42 -148 M20 -120 L42 -148"/>
    <path d="M-30 -12 L-86 35 M30 -12 L86 35 M-28 32 L-78 91 M28 32 L78 91"/>
    <path d="M38 58 L105 108"/>
    <path d="M105 108 L143 88"/>
  </g>
  <text x="360" y="230" fill="#fff" font-family="Arial, Helvetica, sans-serif" font-size="128" font-weight="700" letter-spacing="8">JPGFLY</text>
  <text x="365" y="300" fill="#fff" font-family="Arial, Helvetica, sans-serif" font-size="30" letter-spacing="5">AUTONOMOUS FLY BRAIN · ZEBRA CRITIC · BACKROOMS</text>
  <line x1="365" y1="342" x2="1260" y2="342" stroke="#fff" stroke-width="2" opacity=".55"/>
  <text x="365" y="390" fill="#fff" opacity=".72" font-family="Arial, Helvetica, sans-serif" font-size="22" letter-spacing="3">OBSERVE → CHOOSE → MOVE → PAINT → OBSERVE</text>
</svg>
